<svg width="512" height="512" viewBox="0 0 512 512" fill="none" xmlns="http://www.w3.org/2000/svg">
<circle cx="256" cy="256" r="255.5" fill="#07924F" stroke="#07924F"/>
<path d="M266.002 14C260.503 37.3171 244.141 42.0151 244.141 58.3626C244.141 66.5646 255.253 72.5937 266.002 72.5937C276.993 72.5937 287.436 66.9548 287.436 59.1675C287.436 43.4753 271.684 37.273 266.002 14H266.002ZM255.227 43.2842C250.058 53.4725 254.284 64.134 265.257 67.4804C268.064 68.3366 271.122 68.5209 274.113 68.3275C252.643 75.0433 239.757 57.561 255.227 43.284L255.227 43.2842Z" fill="white"/>
<path d="M169.628 452.36C173.511 461.377 182.514 474.648 182.514 474.648C182.514 474.648 185.122 482.29 190.658 481.586C194.144 481.143 200.757 481.211 200.093 478.801C199.075 475.108 187.078 453.094 187.078 453.094L180.302 435.319L266.661 446.871L268.32 439.084L177.727 426.535L178.148 402.017L285.322 416.166L287.455 406.155L180.28 392.006L191.992 366.977L285.763 383.057L288.133 371.933L195.963 359.765L211.893 336.706L280.485 345.761L282.381 336.862L219.148 328.514L256.938 284.912C256.938 284.912 290.275 251.911 305.288 226.728C316.778 207.454 325.408 196.187 328.362 174.597C330.629 158.027 330.105 147.93 324.713 132.633C319.684 118.365 312.275 109.236 303.659 100.402C294.636 91.1515 289.642 81.8985 280.204 88.0665C267.309 96.4947 276.227 95.43 289.639 103.486C296.13 107.385 313.878 128.143 315.353 148.891C316.25 161.516 309.335 181.377 309.335 181.377C309.335 181.377 299.078 205.814 289.639 220.018C277.204 238.731 265.738 245.999 250.75 262.92C237.129 278.298 216.298 302.645 216.298 302.645C216.298 302.645 196.521 324.338 186.893 340.268C180.528 350.799 172.158 368.059 172.158 368.059C172.158 368.059 165.293 385.972 163.617 397.812C162.1 408.532 161.075 414.435 162.22 425.077C163.383 435.894 165.165 441.996 169.628 452.36Z" fill="white"/>
<path d="M213.444 231.814C221.821 246.165 237.097 267.909 237.097 267.909L249.102 252.499L219.983 207.74L280.775 216.264L283.419 203.512L213.746 193.751L209.376 170.824L296.551 184.349L298.931 172.872L208.747 156.301L213.258 134.713L290.965 149.458L293.873 135.431L219.499 122.377L247.413 85.6634C247.413 85.6634 224.286 97.0744 213.641 107.2C204.441 115.951 200.446 121.731 195.627 132.243C190.403 143.641 189.557 150.695 189.281 162.848C188.983 175.994 190.823 183.539 195.132 196.463C199.888 210.727 205.506 218.213 213.444 231.814Z" fill="white"/>
<path d="M274.227 277.547L260.993 293.203L280.059 325.223L290.631 350.538C292.952 358.241 297.907 375.271 299.158 381.767C300.409 388.262 299.664 400.046 299.134 405.125L294.686 426.5L278.066 451.426L256.804 484.337C256.804 484.337 270.92 475.719 278.922 468.914C286.498 462.471 290.393 458.396 296.7 450.76C301.839 444.538 304.766 440.99 308.712 433.98C312.197 427.791 314.118 424.183 316.066 417.367C318.348 409.388 318.222 404.556 318.534 396.257C318.875 387.155 318.622 381.985 317.393 372.94C316.272 364.692 315.715 359.941 312.872 352.079C310.853 346.495 306 336 306 336C301.439 326.585 299.247 323.604 294.686 314.189C290.125 304.774 283.121 292.412 283.121 292.412L274.227 277.547Z" fill="white"/>
</svg>
